<?xml version="1.0" encoding="UTF-8" standalone="no"?>
<svg width="180px" height="187px" viewBox="0 0 180 187" version="1.1" xmlns="http://www.w3.org/2000/svg" xmlns:xlink="http://www.w3.org/1999/xlink" xmlns:sketch="http://www.bohemiancoding.com/sketch/ns">
    <!-- Generator: Sketch 3.3.2 (12043) - http://www.bohemiancoding.com/sketch -->
    <title>compose_review</title>
    <desc>Created with Sketch.</desc>
    <defs></defs>
    <g id="Page-1" stroke="none" stroke-width="1" fill="none" fill-rule="evenodd" sketch:type="MSPage">
        <g id="Rectangle-2-+-Triangle-1" sketch:type="MSLayerGroup" transform="translate(93.000000, 96.000000)">
            <rect id="Rectangle-2" fill="#FFFFFF" sketch:type="MSShapeGroup" transform="translate(48.000000, 39.000000) rotate(-135.000000) translate(-48.000000, -39.000000) " x="38" y="-6" width="20" height="90" rx="2"></rect>
            <polygon id="Triangle-1" stroke="#FFFFFF" stroke-width="3" sketch:type="MSShapeGroup" transform="translate(10.769650, 76.222781) rotate(-134.000000) translate(-10.769650, -76.222781) " points="10.7718458 69.5427809 19.1746497 82.5666103 2.36465022 82.9027806 "></polygon>
        </g>
        <rect id="Rectangle-8" fill="#FFFFFF" sketch:type="MSShapeGroup" x="27" y="25" width="108" height="24"></rect>
        <path d="M33,92 L130,92" id="Line-Copy-2" stroke="#FFFFFF" stroke-width="12" stroke-linecap="square" sketch:type="MSShapeGroup"></path>
        <path d="M33,112 L130,112" id="Line-Copy-3" stroke="#FFFFFF" stroke-width="12" stroke-linecap="square" sketch:type="MSShapeGroup"></path>
        <path d="M33,131 L111,131" id="Line-Copy-4" stroke="#FFFFFF" stroke-width="12" stroke-linecap="square" sketch:type="MSShapeGroup"></path>
        <path d="M157,6 L157,93" id="Line" stroke="#FFFFFF" stroke-width="10" sketch:type="MSShapeGroup"></path>
        <path d="M6,6 L157,6" id="Line" stroke="#FFFFFF" stroke-width="10" stroke-linecap="round" stroke-linejoin="round" sketch:type="MSShapeGroup"></path>
        <path d="M6,6 L6,156" id="Line" stroke="#FFFFFF" stroke-width="10" stroke-linecap="round" sketch:type="MSShapeGroup"></path>
        <path d="M6,156 L94,156" id="Line" stroke="#FFFFFF" stroke-width="10" sketch:type="MSShapeGroup"></path>
        <path d="M33,71 L130,71" id="Line-Copy-5" stroke="#FFFFFF" stroke-width="12" stroke-linecap="square" sketch:type="MSShapeGroup"></path>
    </g>
</svg>