<?xml version="1.0" encoding="UTF-8" standalone="no"?>
<svg width="166px" height="184px" viewBox="0 0 166 184" version="1.1" xmlns="http://www.w3.org/2000/svg" xmlns:xlink="http://www.w3.org/1999/xlink" xmlns:sketch="http://www.bohemiancoding.com/sketch/ns">
    <!-- Generator: Sketch 3.3.2 (12043) - http://www.bohemiancoding.com/sketch -->
    <title>Slice 1</title>
    <desc>Created with Sketch.</desc>
    <defs></defs>
    <g id="Page-1" stroke="none" stroke-width="1" fill="none" fill-rule="evenodd" sketch:type="MSPage">
        <path d="M142.595723,152.858631 C133.157114,164.726891 120.244567,174.047744 104.742959,179.084521 C62.7226387,192.737751 17.5903085,169.74168 3.93707864,127.72136 C-9.71615124,85.7010387 13.2799196,40.5687086 55.3002404,26.9154787 C63.6361053,24.206992 72.0944384,22.9407811 80.4051934,22.9792503 L79.7943188,103.44818 L80.6574848,102.810986 L142.595723,152.858631 Z" id="Oval-1" fill="#FFFFFF" sketch:type="MSShapeGroup"></path>
        <path d="M148.072749,60.8218633 C140.152265,36.8219181 121.1788,17.8480894 97.1790829,9.92710408 L71.7318399,86.2688331 L148.072749,60.8218633 Z" id="Path-Copy" fill="#FFFFFF" sketch:type="MSShapeGroup" transform="translate(109.902295, 48.097969) rotate(-18.000000) translate(-109.902295, -48.097969) "></path>
        <path d="M147.724426,150.401929 C158.808718,136.67272 165.445726,119.203632 165.445726,100.184387 C165.445726,82.8041103 159.903309,66.7183344 150.489488,53.5980713 L87,101.335075 L147.724426,150.401929 Z" id="Path-Copy-2" fill="#FFFFFF" sketch:type="MSShapeGroup"></path>
    </g>
</svg>